<svg height="464pt" viewBox="-96 0 464 464.23866" width="464pt" xmlns="http://www.w3.org/2000/svg"><path d="m272.117188 136.238281c.105468-59.328125-38.257813-111.875-94.800782-129.847656-56.539062-17.972656-118.203125 2.78125-152.375 51.277344-34.167968 48.5-32.957031 113.554687 2.992188 160.746093l44.183594 117.824219h128l44.1875-117.824219c18.046874-23.59375 27.820312-52.472656 27.8125-82.175781zm0 0" fill="#fdbd40"/><path d="m152.117188 344.238281c-.441407.003907-.886719-.035156-1.324219-.113281-4.359375-.730469-7.296875-4.851562-6.570313-9.207031l21.664063-129.976563-26.800781 10.730469c-1.910157.75-4.039063.75-5.949219 0l-26.800781-10.730469 21.664062 129.976563c.546875 2.851562-.492188 5.777343-2.71875 7.640625-2.226562 1.867187-5.289062 2.378906-8 1.339844-2.710938-1.039063-4.648438-3.464844-5.058594-6.339844l-24-144c-.480468-2.851563.617188-5.742188 2.871094-7.554688 2.253906-1.816406 5.308594-2.273437 7.992188-1.195312l37.03125 14.8125 37.027343-14.8125c2.683594-1.078125 5.738281-.621094 7.992188 1.195312 2.253906 1.8125 3.351562 4.703125 2.871093 7.554688l-24 144c-.644531 3.855468-3.980468 6.679687-7.890624 6.679687zm0 0" fill="#e1462b"/><path d="m200.117188 80.238281h16v16h-16zm0 0" fill="#fff"/><path d="m176.117188 112.238281h16v16h-16zm0 0" fill="#fff"/><path d="m40.117188 336.238281h192v96h-192zm0 0" fill="#7aa1bc"/><path d="m184.117188 464.238281h-96c-17.671876 0-32-14.328125-32-32h160c0 17.671875-14.324219 32-32 32zm0 0" fill="#aabece"/><g fill="#394d5c"><path d="m40.117188 360.238281h88v16h-88zm0 0"/><path d="m40.117188 400.238281h192v32h-192zm0 0"/></g></svg>