<?xml version="1.0" encoding="iso-8859-1"?>
<!-- Generator: Adobe Illustrator 19.0.0, SVG Export Plug-In . SVG Version: 6.00 Build 0)  -->
<svg version="1.1" id="Capa_1" xmlns="http://www.w3.org/2000/svg" xmlns:xlink="http://www.w3.org/1999/xlink" x="0px" y="0px"
	 viewBox="0 0 512 512" style="enable-background:new 0 0 512 512;" xml:space="preserve">
<rect x="181.68" y="231.23" style="fill:#C9C6CA;" width="33.03" height="66.06"/>
<rect x="297.29" y="231.23" style="fill:#DBD9DC;" width="33.03" height="66.06"/>
<g>
	<path style="fill:#C9C6CA;" d="M355.109,115.613c7.399,0,14.133-5.008,16.012-12.508c2.21-8.855-3.169-17.823-12.02-20.032
		L160.907,33.524c-8.819-2.206-17.81,3.169-20.028,12.016c-2.21,8.855,3.169,17.823,12.02,20.032l198.194,49.548
		C352.435,115.46,353.782,115.613,355.109,115.613z"/>
	<path style="fill:#C9C6CA;" d="M355.109,181.677c7.399,0,14.133-5.008,16.012-12.508c2.21-8.855-3.169-17.823-12.02-20.032
		L160.907,99.589c-8.819-2.206-17.81,3.169-20.028,12.016c-2.21,8.855,3.169,17.823,12.02,20.032l198.194,49.548
		C352.435,181.524,353.782,181.677,355.109,181.677z"/>
	<path style="fill:#C9C6CA;" d="M355.109,247.742c7.399,0,14.133-5.008,16.012-12.508c2.21-8.855-3.169-17.823-12.02-20.032
		l-198.194-49.548c-8.819-2.206-17.81,3.169-20.028,12.016c-2.21,8.855,3.169,17.823,12.02,20.032l198.194,49.548
		C352.435,247.589,353.782,247.742,355.109,247.742z"/>
</g>
<path style="fill:#6F6571;" d="M222.968,462.452l5.958,35.747c1.327,7.964,8.218,13.801,16.291,13.801h21.566
	c8.074,0,14.964-5.837,16.291-13.801l5.958-35.747H222.968z"/>
<path style="fill:#5D5360;" d="M257.49,495.484h26.036l5.506-33.032h-66.065l5.958,35.747c1.327,7.964,8.218,13.801,16.292,13.801
	h5.278l-1.15-6.9C248.506,500.066,252.387,495.484,257.49,495.484z"/>
<path style="fill:#9C969E;" d="M198.193,363.355v90.839c0,13.682,11.092,24.774,24.774,24.774h66.065
	c13.682,0,24.774-11.092,24.774-24.774v-90.839H198.193z"/>
<g>
	<path style="fill:#867E88;" d="M313.806,388.129v-24.774H198.193v90.839c0,13.682,11.092,24.774,24.774,24.774h16.516v-57.806
		c0-18.243,14.789-33.032,33.032-33.032L313.806,388.129L313.806,388.129z"/>
	<path style="fill:#867E88;" d="M198.185,454.191c-4.29,0-7.919-3.323-8.226-7.669c-0.331-4.548,3.097-8.5,7.645-8.827
		l115.613-8.258c4.629-0.347,8.5,3.105,8.823,7.649c0.331,4.548-3.097,8.5-7.645,8.827l-115.613,8.258
		C198.581,454.183,198.379,454.191,198.185,454.191z"/>
	<path style="fill:#867E88;" d="M198.185,421.158c-4.29,0-7.919-3.323-8.226-7.669c-0.331-4.548,3.097-8.5,7.645-8.827
		l115.613-8.258c4.629-0.29,8.5,3.105,8.823,7.649c0.331,4.548-3.097,8.5-7.645,8.827l-115.613,8.258
		C198.581,421.15,198.379,421.158,198.185,421.158z"/>
</g>
<path style="fill:#EDEBED;" d="M339.523,361.326l-25.718,10.287H198.191l-25.715-10.287c-9.406-3.762-15.573-12.872-15.573-23.002
	v-32.776c0-9.122,7.395-16.516,16.516-16.516H338.58c9.122,0,16.516,7.395,16.516,16.516v32.775
	C355.097,348.454,348.929,357.564,339.523,361.326z"/>
<path style="fill:#DBD9DC;" d="M231.226,338.324v-32.776c0-9.122,1.849-16.516,4.129-16.516H173.42
	c-9.121,0-16.516,7.394-16.516,16.516v32.776c0,10.13,6.167,19.239,15.573,23.002l25.715,10.287h43.356l-6.429-10.287
	C232.768,357.564,231.226,348.454,231.226,338.324z"/>
<path style="fill:#EDEBED;" d="M235.477,0.501l-81.625,20.406c-8.483,2.121-14.662,10.218-13.265,18.849
	c1.34,8.282,8.447,13.929,16.304,13.929c1.327,0,2.673-0.153,4.016-0.492l82.582-20.645C250.842,30.711,256,24.104,256,16.525l0,0
	C256,5.78,245.902-2.105,235.477,0.501z"/>
<g>
	<path style="fill:#DBD9DC;" d="M215.761,21.578c-1.632-6.538,0.57-13.077,5.109-17.425l-67.971,16.993
		c-8.851,2.21-14.23,11.177-12.02,20.032c1.879,7.5,8.613,12.508,16.012,12.508c1.327,0,2.673-0.153,4.016-0.492l71.825-17.956
		C224.855,34.982,217.771,29.599,215.761,21.578z"/>
	<path style="fill:#DBD9DC;" d="M351.093,247.25c1.343,0.339,2.69,0.492,4.016,0.492c7.399,0,14.133-5.008,16.012-12.508
		c2.21-8.855-3.169-17.823-12.02-20.032l-58.107-14.527l-63.561,18.16L351.093,247.25z"/>
	<path style="fill:#DBD9DC;" d="M351.093,181.185c1.343,0.339,2.69,0.492,4.016,0.492c7.399,0,14.133-5.008,16.012-12.508
		c2.21-8.855-3.169-17.823-12.02-20.032l-58.107-14.527l-63.561,18.16L351.093,181.185z"/>
	<path style="fill:#DBD9DC;" d="M351.093,115.121c1.343,0.339,2.69,0.492,4.016,0.492c7.399,0,14.133-5.008,16.012-12.508
		c2.21-8.855-3.169-17.823-12.02-20.032l-58.107-14.527l-63.561,18.16L351.093,115.121z"/>
</g>
<path style="fill:#EDEBED;" d="M156.891,251.877c-7.399,0-14.133-5.008-16.012-12.508c-2.21-8.855,3.169-17.823,12.02-20.032
	l198.194-49.548c8.819-2.206,17.81,3.169,20.028,12.016c2.21,8.855-3.169,17.823-12.02,20.032l-198.194,49.548
	C159.565,251.724,158.218,251.877,156.891,251.877z"/>
<path style="fill:#DBD9DC;" d="M215.761,219.769c-1.632-6.538,0.57-13.077,5.109-17.425l-67.971,16.993
	c-8.851,2.21-14.23,11.177-12.02,20.032c1.879,7.5,8.613,12.508,16.012,12.508c1.327,0,2.673-0.153,4.016-0.492l71.825-17.956
	C224.855,233.173,217.771,227.79,215.761,219.769z"/>
<path style="fill:#EDEBED;" d="M156.891,185.815c-7.399,0-14.133-5.008-16.012-12.508c-2.21-8.855,3.169-17.823,12.02-20.032
	l198.194-49.548c8.819-2.206,17.81,3.169,20.028,12.016c2.21,8.855-3.169,17.823-12.02,20.032l-198.194,49.548
	C159.565,185.662,158.218,185.815,156.891,185.815z"/>
<path style="fill:#DBD9DC;" d="M215.761,153.707c-1.632-6.538,0.57-13.077,5.109-17.425l-67.971,16.993
	c-8.851,2.21-14.23,11.177-12.02,20.032c1.879,7.5,8.613,12.508,16.012,12.508c1.327,0,2.673-0.153,4.016-0.492l71.825-17.956
	C224.855,167.111,217.771,161.729,215.761,153.707z"/>
<path style="fill:#EDEBED;" d="M156.891,119.748c-7.399,0-14.133-5.008-16.012-12.508c-2.21-8.855,3.169-17.823,12.02-20.032
	L351.093,37.66c8.819-2.206,17.81,3.169,20.028,12.016c2.21,8.855-3.169,17.823-12.02,20.032l-198.194,49.548
	C159.565,119.595,158.218,119.748,156.891,119.748z"/>
<path style="fill:#DBD9DC;" d="M215.761,87.64c-1.632-6.538,0.57-13.077,5.109-17.425l-67.971,16.993
	c-8.851,2.21-14.23,11.177-12.02,20.032c1.879,7.5,8.613,12.508,16.012,12.508c1.327,0,2.673-0.153,4.016-0.492l71.825-17.956
	C224.855,101.044,217.771,95.661,215.761,87.64z"/>
<g>
</g>
<g>
</g>
<g>
</g>
<g>
</g>
<g>
</g>
<g>
</g>
<g>
</g>
<g>
</g>
<g>
</g>
<g>
</g>
<g>
</g>
<g>
</g>
<g>
</g>
<g>
</g>
<g>
</g>
</svg>
