<svg id="Layer_1" height="512" viewBox="0 0 512 512" width="512" xmlns="http://www.w3.org/2000/svg" data-name="Layer 1"><path d="m322.48 386.3h-138.43c-1.66 0-3.32-1.66-2.77-3.32l1.66-12.74c4.43-31.58-6.65-63.7-29.36-85.31a150.037 150.037 0 0 1 -47.08-115.21c2.77-75.89 64.26-138.48 140.14-143.46 86.97-4.99 158.98 63.7 158.98 149.55a149.605 149.605 0 0 1 -40.95 103.01q-2.97 3.135-6.14 6.11c-20.49 19.39-31.01 47.64-29.35 76.44l1.11 21.05a3.8 3.8 0 0 1 -3.7 3.88z" fill="#f8ec7d"/><path d="m322.48 434.24v21.36a30.4 30.4 0 0 1 -30.4 30.4h-72.14a30.4 30.4 0 0 1 -30.4-30.4v-21.36z" fill="#cc7350"/><path d="m343.871 189.76a6 6 0 0 0 -7.111-4.631c-41.169 8.7-62.18 32.634-72.557 51.183a104.445 104.445 0 0 0 -5.7 11.917 167.558 167.558 0 0 0 -30.072-47.844c-13.257-14.854-29.647-28.025-48.714-39.148a6 6 0 1 0 -6.046 10.366c17.978 10.487 33.39 22.859 45.808 36.773a155.85 155.85 0 0 1 33.667 60.829 5.9 5.9 0 0 0 .249.861c16.6 58.228-2.765 113.149-3.03 113.884a6 6 0 1 0 11.278 4.1c.865-2.381 20.853-58.627 3.513-120.487a87.035 87.035 0 0 1 9.524-25.4c9.163-16.378 27.8-37.532 64.564-45.3a6 6 0 0 0 4.627-7.103z" fill="#6fe3ff"/><path d="m269.44 239.24a41.1 41.1 0 0 1 -7.09-14.01 45.033 45.033 0 0 1 13.91-45.51c13.33-11.29 32.15-13.65 49.56-12.27a141.157 141.157 0 0 1 55.9 16.58 63.968 63.968 0 0 0 -30.67 29.6c-2.91 5.87-4.94 12.23-7.6 18.2a47.859 47.859 0 0 1 -6.37 10.83c-17.97 22.21-51.76 17.06-67.64-3.42z" fill="#3bb54a"/><path d="m223.95 204.38c-.05.09-.1.18-.16.27-13.02 20.92-47.91 20.83-57.97-3.05a36.567 36.567 0 0 1 -2.35-9.21c-.68-4.9-.81-9.96-1.69-14.83a48.437 48.437 0 0 0 -16.06-27.97 106.782 106.782 0 0 1 44.11-.27c12.94 2.66 26.12 8.33 33.43 19.34a34.063 34.063 0 0 1 .69 35.72z" fill="#87e680"/><path d="m189.54 386.3h132.94v47.94h-132.94z" fill="#e48e66"/></svg>